<svg width="16" height="16" viewBox="0 0 16 16" fill="none" xmlns="http://www.w3.org/2000/svg">
<path d="M13.5625 8.52336L8.37655 2.5468C8.32967 2.49272 8.27171 2.44935 8.20661 2.41962C8.14151 2.3899 8.07077 2.37451 7.9992 2.37451C7.92763 2.37451 7.8569 2.3899 7.7918 2.41962C7.72669 2.44935 7.66874 2.49272 7.62186 2.5468L2.43748 8.52336C2.42182 8.54137 2.41166 8.56351 2.40822 8.58714C2.40478 8.61076 2.4082 8.63488 2.41808 8.65661C2.42796 8.67834 2.44388 8.69678 2.46394 8.70972C2.484 8.72266 2.50736 8.72957 2.53123 8.72961H3.79686C3.86873 8.72961 3.93748 8.69836 3.98592 8.64367L7.40623 4.70149V13.4999C7.40623 13.5687 7.46248 13.6249 7.53123 13.6249H8.46873C8.53748 13.6249 8.59373 13.5687 8.59373 13.4999V4.70149L12.014 8.64367C12.0609 8.69836 12.1297 8.72961 12.2031 8.72961H13.4687C13.575 8.72961 13.6328 8.60461 13.5625 8.52336Z" fill="#333333"/>
</svg>
