<svg width="29" height="46" viewBox="0 0 29 46" fill="none" xmlns="http://www.w3.org/2000/svg">
<path d="M28.4219 5.79102V1.26172C28.4219 0.869143 27.9707 0.652345 27.666 0.89258L1.25198 21.5234C1.02755 21.698 0.845956 21.9215 0.72104 22.1768C0.596124 22.4322 0.531189 22.7128 0.531189 22.9971C0.531189 23.2814 0.596124 23.5619 0.72104 23.8173C0.845956 24.0727 1.02755 24.2962 1.25198 24.4707L27.666 45.1016C27.9766 45.3418 28.4219 45.125 28.4219 44.7324V40.2031C28.4219 39.916 28.2871 39.6406 28.0645 39.4648L6.97073 23L28.0645 6.5293C28.2871 6.35352 28.4219 6.07813 28.4219 5.79102Z" fill="white"/>
</svg>
