<svg width="29" height="46" viewBox="0 0 29 46" fill="none" xmlns="http://www.w3.org/2000/svg">
<path d="M0.578039 5.79102V1.26172C0.578039 0.869143 1.02921 0.652345 1.3339 0.89258L27.748 21.5234C27.9724 21.698 28.154 21.9215 28.2789 22.1768C28.4038 22.4322 28.4688 22.7128 28.4688 22.9971C28.4688 23.2814 28.4038 23.5619 28.2789 23.8173C28.154 24.0727 27.9724 24.2962 27.748 24.4707L1.3339 45.1016C1.02335 45.3418 0.578039 45.125 0.578039 44.7324V40.2031C0.578039 39.916 0.712803 39.6406 0.935459 39.4648L22.0292 23L0.935459 6.5293C0.712803 6.35352 0.578039 6.07813 0.578039 5.79102Z" fill="white"/>
</svg>
